<svg id="visual" viewBox="0 0 900 100" width="900" height="100" xmlns="http://www.w3.org/2000/svg" xmlns:xlink="http://www.w3.org/1999/xlink" version="1.1"><rect x="0" y="0" width="900" height="100" fill="#105e82"></rect><path d="M0 48L10 45.2C20 42.3 40 36.7 60 34.5C80 32.3 100 33.7 120 35.8C140 38 160 41 180 37.7C200 34.3 220 24.7 240 23.7C260 22.7 280 30.3 300 37C320 43.7 340 49.3 360 45.3C380 41.3 400 27.7 420 21.8C440 16 460 18 480 20.2C500 22.3 520 24.7 540 31.2C560 37.7 580 48.3 600 51.8C620 55.3 640 51.7 660 45.7C680 39.7 700 31.3 720 29C740 26.7 760 30.3 780 33.2C800 36 820 38 840 39.2C860 40.3 880 40.7 890 40.8L900 41L900 101L890 101C880 101 860 101 840 101C820 101 800 101 780 101C760 101 740 101 720 101C700 101 680 101 660 101C640 101 620 101 600 101C580 101 560 101 540 101C520 101 500 101 480 101C460 101 440 101 420 101C400 101 380 101 360 101C340 101 320 101 300 101C280 101 260 101 240 101C220 101 200 101 180 101C160 101 140 101 120 101C100 101 80 101 60 101C40 101 20 101 10 101L0 101Z" fill="#0c5475"></path><path d="M0 32L10 36C20 40 40 48 60 48.8C80 49.7 100 43.3 120 41.8C140 40.3 160 43.7 180 44.5C200 45.3 220 43.7 240 41.5C260 39.3 280 36.7 300 40.8C320 45 340 56 360 60.8C380 65.7 400 64.3 420 63.3C440 62.3 460 61.7 480 57.7C500 53.7 520 46.3 540 42C560 37.7 580 36.3 600 39.5C620 42.7 640 50.3 660 55.8C680 61.3 700 64.7 720 64.5C740 64.3 760 60.7 780 56C800 51.3 820 45.7 840 42.8C860 40 880 40 890 40L900 40L900 101L890 101C880 101 860 101 840 101C820 101 800 101 780 101C760 101 740 101 720 101C700 101 680 101 660 101C640 101 620 101 600 101C580 101 560 101 540 101C520 101 500 101 480 101C460 101 440 101 420 101C400 101 380 101 360 101C340 101 320 101 300 101C280 101 260 101 240 101C220 101 200 101 180 101C160 101 140 101 120 101C100 101 80 101 60 101C40 101 20 101 10 101L0 101Z" fill="#1a455d"></path><path d="M0 57L10 57.8C20 58.7 40 60.3 60 62.8C80 65.3 100 68.7 120 69.8C140 71 160 70 180 69.7C200 69.3 220 69.7 240 67C260 64.3 280 58.7 300 56.7C320 54.7 340 56.3 360 55.8C380 55.3 400 52.7 420 54.7C440 56.7 460 63.3 480 67.2C500 71 520 72 540 73C560 74 580 75 600 74.2C620 73.3 640 70.7 660 67.5C680 64.3 700 60.7 720 60.5C740 60.3 760 63.7 780 64.7C800 65.7 820 64.3 840 64.3C860 64.3 880 65.7 890 66.3L900 67L900 101L890 101C880 101 860 101 840 101C820 101 800 101 780 101C760 101 740 101 720 101C700 101 680 101 660 101C640 101 620 101 600 101C580 101 560 101 540 101C520 101 500 101 480 101C460 101 440 101 420 101C400 101 380 101 360 101C340 101 320 101 300 101C280 101 260 101 240 101C220 101 200 101 180 101C160 101 140 101 120 101C100 101 80 101 60 101C40 101 20 101 10 101L0 101Z" fill="#1e3546"></path><path d="M0 75L10 77.2C20 79.3 40 83.7 60 85.2C80 86.7 100 85.3 120 84.3C140 83.3 160 82.7 180 83.5C200 84.3 220 86.7 240 88C260 89.3 280 89.7 300 89.2C320 88.7 340 87.3 360 85.2C380 83 400 80 420 77.7C440 75.3 460 73.7 480 74.8C500 76 520 80 540 83.2C560 86.3 580 88.7 600 88.2C620 87.7 640 84.3 660 82.7C680 81 700 81 720 81.2C740 81.3 760 81.7 780 80.2C800 78.7 820 75.3 840 75.3C860 75.3 880 78.7 890 80.3L900 82L900 101L890 101C880 101 860 101 840 101C820 101 800 101 780 101C760 101 740 101 720 101C700 101 680 101 660 101C640 101 620 101 600 101C580 101 560 101 540 101C520 101 500 101 480 101C460 101 440 101 420 101C400 101 380 101 360 101C340 101 320 101 300 101C280 101 260 101 240 101C220 101 200 101 180 101C160 101 140 101 120 101C100 101 80 101 60 101C40 101 20 101 10 101L0 101Z" fill="#1d2730"></path></svg>