<svg id="visual" viewBox="0 0 900 100" width="900" height="100" xmlns="http://www.w3.org/2000/svg" xmlns:xlink="http://www.w3.org/1999/xlink" version="1.1"><rect x="0" y="0" width="900" height="100" fill="#105e82"></rect><path d="M0 45L8.3 45.8C16.7 46.7 33.3 48.3 50 46.3C66.7 44.3 83.3 38.7 100 40.5C116.7 42.3 133.3 51.7 150 51.8C166.7 52 183.3 43 200 38.3C216.7 33.7 233.3 33.3 250 33.2C266.7 33 283.3 33 300 37.5C316.7 42 333.3 51 350 52.7C366.7 54.3 383.3 48.7 400 45.2C416.7 41.7 433.3 40.3 450 41.3C466.7 42.3 483.3 45.7 500 46.2C516.7 46.7 533.3 44.3 550 42C566.7 39.7 583.3 37.3 600 36C616.7 34.7 633.3 34.3 650 38.7C666.7 43 683.3 52 700 54.3C716.7 56.7 733.3 52.3 750 51C766.7 49.7 783.3 51.3 800 51.2C816.7 51 833.3 49 850 47.7C866.7 46.3 883.3 45.7 891.7 45.3L900 45L900 0L891.7 0C883.3 0 866.7 0 850 0C833.3 0 816.7 0 800 0C783.3 0 766.7 0 750 0C733.3 0 716.7 0 700 0C683.3 0 666.7 0 650 0C633.3 0 616.7 0 600 0C583.3 0 566.7 0 550 0C533.3 0 516.7 0 500 0C483.3 0 466.7 0 450 0C433.3 0 416.7 0 400 0C383.3 0 366.7 0 350 0C333.3 0 316.7 0 300 0C283.3 0 266.7 0 250 0C233.3 0 216.7 0 200 0C183.3 0 166.7 0 150 0C133.3 0 116.7 0 100 0C83.3 0 66.7 0 50 0C33.3 0 16.7 0 8.3 0L0 0Z" fill="#0c577a"></path><path d="M0 32L8.3 30.8C16.7 29.7 33.3 27.3 50 29.5C66.7 31.7 83.3 38.3 100 41.7C116.7 45 133.3 45 150 41.8C166.7 38.7 183.3 32.3 200 29.7C216.7 27 233.3 28 250 29.8C266.7 31.7 283.3 34.3 300 37.5C316.7 40.7 333.3 44.3 350 42.8C366.7 41.3 383.3 34.7 400 34.7C416.7 34.7 433.3 41.3 450 44.5C466.7 47.7 483.3 47.3 500 45.2C516.7 43 533.3 39 550 39.3C566.7 39.7 583.3 44.3 600 44C616.7 43.7 633.3 38.3 650 34.5C666.7 30.7 683.3 28.3 700 27.8C716.7 27.3 733.3 28.7 750 32.2C766.7 35.7 783.3 41.3 800 42.2C816.7 43 833.3 39 850 38.8C866.7 38.7 883.3 42.3 891.7 44.2L900 46L900 0L891.7 0C883.3 0 866.7 0 850 0C833.3 0 816.7 0 800 0C783.3 0 766.7 0 750 0C733.3 0 716.7 0 700 0C683.3 0 666.7 0 650 0C633.3 0 616.7 0 600 0C583.3 0 566.7 0 550 0C533.3 0 516.7 0 500 0C483.3 0 466.7 0 450 0C433.3 0 416.7 0 400 0C383.3 0 366.7 0 350 0C333.3 0 316.7 0 300 0C283.3 0 266.7 0 250 0C233.3 0 216.7 0 200 0C183.3 0 166.7 0 150 0C133.3 0 116.7 0 100 0C83.3 0 66.7 0 50 0C33.3 0 16.7 0 8.3 0L0 0Z" fill="#194d6c"></path><path d="M0 22L8.3 23.3C16.7 24.7 33.3 27.3 50 27.8C66.7 28.3 83.3 26.7 100 26.8C116.7 27 133.3 29 150 29.7C166.7 30.3 183.3 29.7 200 30.7C216.7 31.7 233.3 34.3 250 35.2C266.7 36 283.3 35 300 32.5C316.7 30 333.3 26 350 25.2C366.7 24.3 383.3 26.7 400 26.8C416.7 27 433.3 25 450 25.5C466.7 26 483.3 29 500 32.2C516.7 35.3 533.3 38.7 550 37.3C566.7 36 583.3 30 600 28.8C616.7 27.7 633.3 31.3 650 31.7C666.7 32 683.3 29 700 28.8C716.7 28.7 733.3 31.3 750 32C766.7 32.7 783.3 31.3 800 32C816.7 32.7 833.3 35.3 850 33.5C866.7 31.7 883.3 25.3 891.7 22.2L900 19L900 0L891.7 0C883.3 0 866.7 0 850 0C833.3 0 816.7 0 800 0C783.3 0 766.7 0 750 0C733.3 0 716.7 0 700 0C683.3 0 666.7 0 650 0C633.3 0 616.7 0 600 0C583.3 0 566.7 0 550 0C533.3 0 516.7 0 500 0C483.3 0 466.7 0 450 0C433.3 0 416.7 0 400 0C383.3 0 366.7 0 350 0C333.3 0 316.7 0 300 0C283.3 0 266.7 0 250 0C233.3 0 216.7 0 200 0C183.3 0 166.7 0 150 0C133.3 0 116.7 0 100 0C83.3 0 66.7 0 50 0C33.3 0 16.7 0 8.3 0L0 0Z" fill="#1f445f"></path><path d="M0 30L8.3 29C16.7 28 33.3 26 50 23.8C66.7 21.7 83.3 19.3 100 17.8C116.7 16.3 133.3 15.7 150 16.5C166.7 17.3 183.3 19.7 200 21C216.7 22.3 233.3 22.7 250 23.2C266.7 23.7 283.3 24.3 300 24C316.7 23.7 333.3 22.3 350 22.5C366.7 22.7 383.3 24.3 400 25.7C416.7 27 433.3 28 450 26.3C466.7 24.7 483.3 20.3 500 18.3C516.7 16.3 533.3 16.7 550 16.3C566.7 16 583.3 15 600 16.8C616.7 18.7 633.3 23.3 650 24.5C666.7 25.7 683.3 23.3 700 21.7C716.7 20 733.3 19 750 20C766.7 21 783.3 24 800 25.8C816.7 27.7 833.3 28.3 850 27.8C866.7 27.3 883.3 25.7 891.7 24.8L900 24L900 0L891.7 0C883.3 0 866.7 0 850 0C833.3 0 816.7 0 800 0C783.3 0 766.7 0 750 0C733.3 0 716.7 0 700 0C683.3 0 666.7 0 650 0C633.3 0 616.7 0 600 0C583.3 0 566.7 0 550 0C533.3 0 516.7 0 500 0C483.3 0 466.7 0 450 0C433.3 0 416.7 0 400 0C383.3 0 366.7 0 350 0C333.3 0 316.7 0 300 0C283.3 0 266.7 0 250 0C233.3 0 216.7 0 200 0C183.3 0 166.7 0 150 0C133.3 0 116.7 0 100 0C83.3 0 66.7 0 50 0C33.3 0 16.7 0 8.3 0L0 0Z" fill="#213a51"></path><path d="M0 16L8.3 16.5C16.7 17 33.3 18 50 18.5C66.7 19 83.3 19 100 18.2C116.7 17.3 133.3 15.7 150 15C166.7 14.3 183.3 14.7 200 13.8C216.7 13 233.3 11 250 10.2C266.7 9.3 283.3 9.7 300 12.3C316.7 15 333.3 20 350 21.7C366.7 23.3 383.3 21.7 400 21.5C416.7 21.3 433.3 22.7 450 22.2C466.7 21.7 483.3 19.3 500 16.8C516.7 14.3 533.3 11.7 550 11.8C566.7 12 583.3 15 600 15.8C616.7 16.7 633.3 15.3 650 14.3C666.7 13.3 683.3 12.7 700 13.2C716.7 13.7 733.3 15.3 750 15.2C766.7 15 783.3 13 800 13.7C816.7 14.3 833.3 17.7 850 18.8C866.7 20 883.3 19 891.7 18.5L900 18L900 0L891.7 0C883.3 0 866.7 0 850 0C833.3 0 816.7 0 800 0C783.3 0 766.7 0 750 0C733.3 0 716.7 0 700 0C683.3 0 666.7 0 650 0C633.3 0 616.7 0 600 0C583.3 0 566.7 0 550 0C533.3 0 516.7 0 500 0C483.3 0 466.7 0 450 0C433.3 0 416.7 0 400 0C383.3 0 366.7 0 350 0C333.3 0 316.7 0 300 0C283.3 0 266.7 0 250 0C233.3 0 216.7 0 200 0C183.3 0 166.7 0 150 0C133.3 0 116.7 0 100 0C83.3 0 66.7 0 50 0C33.3 0 16.7 0 8.3 0L0 0Z" fill="#213144"></path><path d="M0 11L8.3 9.8C16.7 8.7 33.3 6.3 50 5.7C66.7 5 83.3 6 100 7.8C116.7 9.7 133.3 12.3 150 12C166.7 11.7 183.3 8.3 200 7.3C216.7 6.3 233.3 7.7 250 7.2C266.7 6.7 283.3 4.3 300 3.3C316.7 2.3 333.3 2.7 350 4.8C366.7 7 383.3 11 400 11.3C416.7 11.7 433.3 8.3 450 6.3C466.7 4.3 483.3 3.7 500 3.7C516.7 3.7 533.3 4.3 550 6C566.7 7.7 583.3 10.3 600 10.3C616.7 10.3 633.3 7.7 650 6.7C666.7 5.7 683.3 6.3 700 6.3C716.7 6.3 733.3 5.7 750 7C766.7 8.3 783.3 11.7 800 12.8C816.7 14 833.3 13 850 12.5C866.7 12 883.3 12 891.7 12L900 12L900 0L891.7 0C883.3 0 866.7 0 850 0C833.3 0 816.7 0 800 0C783.3 0 766.7 0 750 0C733.3 0 716.7 0 700 0C683.3 0 666.7 0 650 0C633.3 0 616.7 0 600 0C583.3 0 566.7 0 550 0C533.3 0 516.7 0 500 0C483.3 0 466.7 0 450 0C433.3 0 416.7 0 400 0C383.3 0 366.7 0 350 0C333.3 0 316.7 0 300 0C283.3 0 266.7 0 250 0C233.3 0 216.7 0 200 0C183.3 0 166.7 0 150 0C133.3 0 116.7 0 100 0C83.3 0 66.7 0 50 0C33.3 0 16.7 0 8.3 0L0 0Z" fill="#1f2937"></path></svg>